<svg xmlns="http://www.w3.org/2000/svg" width="36" height="27" viewBox="0 0 36 27">
  <g id="_2325059-apple-credit-money-pay-payments-send" data-name="2325059-apple-credit-money-pay-payments-send" transform="translate(0 -3)">
    <path id="Контур_9" data-name="Контур 9" d="M15.137,14.293c0,.442.388.723.982.723a1.242,1.242,0,0,0,1.338-1.176v-.4l-1.252.086C15.5,13.57,15.137,13.829,15.137,14.293Z" transform="translate(7.568 5.22)" fill="#303c42"/>
    <path id="Контур_10" data-name="Контур 10" d="M13.05,11.024H11.712v2.73H13.05a1.288,1.288,0,0,0,1.457-1.36A1.291,1.291,0,0,0,13.05,11.024Z" transform="translate(5.856 4.012)" fill="#303c42"/>
    <path id="Контур_11" data-name="Контур 11" d="M33,3H3A3,3,0,0,0,0,6V27a3,3,0,0,0,3,3H33a3,3,0,0,0,3-3V6A3,3,0,0,0,33,3ZM10.007,11.409a2.689,2.689,0,0,1,1.768-.909,2.643,2.643,0,0,1-.624,1.917,2.226,2.226,0,0,1-1.781.849A2.509,2.509,0,0,1,10.007,11.409Zm3.434,9.6c-.5.731-1.02,1.459-1.836,1.474s-1.063-.476-1.982-.476-1.2.461-1.966.491c-.789.03-1.391-.791-1.894-1.519-1.031-1.49-1.819-4.21-.761-6.046a2.935,2.935,0,0,1,2.483-1.5c.774-.015,1.507.521,1.98.521s1.363-.645,2.3-.551a2.8,2.8,0,0,1,2.195,1.19,2.713,2.713,0,0,0-1.3,2.284A2.649,2.649,0,0,0,14.271,19.3,6.6,6.6,0,0,1,13.441,21.011Zm5.714-2.349H17.568V21H16.5V14.14h2.687A2.161,2.161,0,0,1,21.453,16.4,2.184,2.184,0,0,1,19.155,18.661Zm6.9,2.331h-.982v-.863h-.022a1.8,1.8,0,0,1-1.629.917,1.557,1.557,0,0,1-1.759-1.522c0-.906.7-1.424,1.975-1.511l1.392-.076v-.4c0-.594-.4-.917-1.079-.917a.986.986,0,0,0-1.058.734h-.96a1.841,1.841,0,0,1,2.05-1.586c1.263,0,2.072.669,2.072,1.683Zm3.518.237c-.442,1.241-.928,1.64-1.986,1.64a2.69,2.69,0,0,1-.41-.022v-.842a1.585,1.585,0,0,0,.324.022.889.889,0,0,0,.939-.755l.076-.27-1.878-5.18h1.112l1.327,4.219h.022l1.327-4.219H31.5Z" fill="#303c42"/>
  </g>
</svg>
