<svg xmlns="http://www.w3.org/2000/svg" width="36" height="27" viewBox="0 0 36 27">
  <g id="_2325025-card-money-online-pay-payments-send-visa" data-name="2325025-card-money-online-pay-payments-send-visa" transform="translate(0 -3)">
    <path id="Контур_1" data-name="Контур 1" d="M33,3H3A3,3,0,0,0,0,6V27a3,3,0,0,0,3,3H33a3,3,0,0,0,3-3V6A3,3,0,0,0,33,3ZM7.5,13.651A.194.194,0,0,1,7.7,13.5h0l1.856,0h.008a.724.724,0,0,1,.765.481l0,.009.329,1.436a.179.179,0,0,1-.111.2.21.21,0,0,1-.082.016.2.2,0,0,1-.157-.072,5.788,5.788,0,0,0-2.677-1.724A.181.181,0,0,1,7.5,13.651Zm4.371,5.84-1.593,0h0a.2.2,0,0,1-.19-.131L8.708,15a.175.175,0,0,1,.078-.2.211.211,0,0,1,.232.006,6.346,6.346,0,0,1,1.975,2.165.14.14,0,0,1,.009.024l.181.6,1.683-3.967a.2.2,0,0,1,.184-.116h1.439a.2.2,0,0,1,.165.082.17.17,0,0,1,.016.172l-2.615,5.611A.2.2,0,0,1,11.874,19.491Zm4.32-.145A.194.194,0,0,1,16,19.5H14.633a.2.2,0,0,1-.151-.065.173.173,0,0,1-.044-.148l1.038-5.622a.194.194,0,0,1,.195-.152h1.368a.2.2,0,0,1,.151.065.172.172,0,0,1,.044.148Zm4.616-3.407c.979.409,1.434.907,1.427,1.565-.013,1.2-1.178,1.972-2.968,1.972h0a6.241,6.241,0,0,1-1.742-.251.181.181,0,0,1-.129-.2l.169-.913a.183.183,0,0,1,.1-.129.212.212,0,0,1,.171-.009,3.859,3.859,0,0,0,1.6.3c.488,0,1.015-.176,1.02-.563,0-.253-.22-.434-.883-.716-.647-.276-1.5-.739-1.494-1.569.009-1.121,1.195-1.9,2.882-1.9a4.868,4.868,0,0,1,1.365.19.182.182,0,0,1,.135.2l-.16.867a.183.183,0,0,1-.1.128.212.212,0,0,1-.169.012,3.334,3.334,0,0,0-1.152-.2h-.052c-.645,0-.981.249-.981.494C19.844,15.491,20.211,15.67,20.81,15.938Zm7.646,3.493a.2.2,0,0,1-.154.068H27.066a.2.2,0,0,1-.193-.143c-.041-.173-.141-.594-.181-.753H24.427c-.037.087-.149.358-.323.781a.2.2,0,0,1-.185.118H22.5a.2.2,0,0,1-.166-.083.17.17,0,0,1-.015-.173l2.5-5.23a.888.888,0,0,1,.926-.5h1.207a.2.2,0,0,1,.193.143L28.5,19.278A.172.172,0,0,1,28.456,19.432Z" fill="#303c42"/>
    <path id="Контур_2" data-name="Контур 2" d="M17.565,11.087l-.94,2.245h1.469L17.684,11.6Z" transform="translate(8.312 4.044)" fill="#303c42"/>
  </g>
</svg>
