<svg xmlns="http://www.w3.org/2000/svg" width="36" height="27" viewBox="0 0 36 27">
  <g id="_2325045-credit-mastercard-money-online-pay-payments-send" data-name="2325045-credit-mastercard-money-online-pay-payments-send" transform="translate(0 -3)">
    <path id="Контур_3" data-name="Контур 3" d="M12.232,16.752a.563.563,0,0,0-.581.531h1.135A.543.543,0,0,0,12.232,16.752Z" transform="translate(5.825 6.876)" fill="#303c42"/>
    <path id="Контур_4" data-name="Контур 4" d="M7.584,16.767a.7.7,0,1,0,.659.7A.656.656,0,0,0,7.584,16.767Z" transform="translate(3.46 6.884)" fill="#303c42"/>
    <path id="Контур_5" data-name="Контур 5" d="M16.538,16.767a.7.7,0,1,0,.659.7A.656.656,0,0,0,16.538,16.767Z" transform="translate(7.937 6.884)" fill="#303c42"/>
    <path id="Контур_6" data-name="Контур 6" d="M33,3H3A3,3,0,0,0,0,6V27a3,3,0,0,0,3,3H33a3,3,0,0,0,3-3V6A3,3,0,0,0,33,3ZM9.47,25.445H8.989V24.227c0-.371-.156-.577-.481-.577a.516.516,0,0,0-.536.581v1.213H7.492V24.227c0-.371-.16-.577-.476-.577a.512.512,0,0,0-.536.581v1.213H6V23.257h.476v.27a.724.724,0,0,1,.641-.325.8.8,0,0,1,.723.389.847.847,0,0,1,.769-.389.815.815,0,0,1,.861.87Zm2.682-1.094v1.094h-.476v-.266a.83.83,0,0,1-.691.321,1.15,1.15,0,0,1,0-2.3.83.83,0,0,1,.691.32v-.266h.476Zm1.41,1.149a1.579,1.579,0,0,1-.948-.284l.224-.371a1.165,1.165,0,0,0,.728.229c.325,0,.5-.1.5-.266,0-.124-.124-.192-.385-.229l-.224-.032c-.49-.069-.755-.288-.755-.645,0-.435.357-.7.911-.7a1.636,1.636,0,0,1,.893.229l-.206.385a1.41,1.41,0,0,0-.682-.188c-.261,0-.417.1-.417.256s.165.188.371.215l.224.032c.476.069.764.27.764.655C14.56,25.2,14.194,25.5,13.562,25.5Zm2.522,0c-.563,0-.76-.3-.76-.81v-1H14.88v-.435h.444v-.664h.481v.664h.778v.435h-.778v.989c0,.22.078.366.316.366a.879.879,0,0,0,.421-.124l.137.407A1.119,1.119,0,0,1,16.084,25.5Zm3.012-.966H17.471a.608.608,0,0,0,.655.536,1.042,1.042,0,0,0,.636-.229l.233.352a1.33,1.33,0,0,1-.9.307,1.15,1.15,0,0,1-.032-2.3,1.049,1.049,0,0,1,1.039,1.149C19.106,24.415,19.1,24.475,19.1,24.534Zm1.739-.824a.775.775,0,0,0-.3-.055c-.311,0-.467.2-.467.563v1.227H19.6V23.257h.471v.266a.645.645,0,0,1,.577-.32,1.017,1.017,0,0,1,.339.06Zm1.442,1.341a.961.961,0,0,0,.572-.2l.229.385a1.146,1.146,0,0,1-.787.261,1.149,1.149,0,1,1,0-2.3,1.146,1.146,0,0,1,.787.261l-.229.385a.962.962,0,0,0-.572-.2.7.7,0,0,0,0,1.4Zm3.3-.7v1.094h-.476v-.266a.83.83,0,0,1-.691.321,1.15,1.15,0,0,1,0-2.3.83.83,0,0,1,.691.32v-.266h.476Zm1.868-.641a.776.776,0,0,0-.3-.055c-.311,0-.467.2-.467.563v1.227H26.21V23.257h.471v.266a.645.645,0,0,1,.577-.32,1.018,1.018,0,0,1,.339.06Zm2.55.641v1.094h-.476v-.266a.83.83,0,0,1-.691.321,1.15,1.15,0,0,1,0-2.3.83.83,0,0,1,.691.32V22.378H30Zm-7.125-2.6A7.083,7.083,0,0,1,18,19.794,7.125,7.125,0,1,1,18,9.456,7.117,7.117,0,1,1,22.875,21.75Z" fill="#303c42"/>
    <path id="Контур_7" data-name="Контур 7" d="M19.483,16.767a.7.7,0,1,0,.659.7A.656.656,0,0,0,19.483,16.767Z" transform="translate(9.41 6.884)" fill="#303c42"/>
    <path id="Контур_8" data-name="Контур 8" d="M12.75,7.3a7.061,7.061,0,0,0,0,10.337,7.061,7.061,0,0,0,0-10.337Z" transform="translate(5.25 2.152)" fill="#303c42"/>
  </g>
</svg>
