<svg xmlns="http://www.w3.org/2000/svg" width="24" height="24" viewBox="0 0 24 24">
  <path id="Instagram" d="M512,160c-3.259,0-3.668.014-4.948.072a8.806,8.806,0,0,0-2.913.558,6.136,6.136,0,0,0-3.51,3.51,8.8,8.8,0,0,0-.558,2.913c-.059,1.28-.072,1.689-.072,4.948s.014,3.668.072,4.948a8.8,8.8,0,0,0,.558,2.913,6.136,6.136,0,0,0,3.51,3.51,8.808,8.808,0,0,0,2.913.558c1.28.058,1.688.072,4.948.072s3.667-.014,4.948-.072a8.808,8.808,0,0,0,2.913-.558,6.135,6.135,0,0,0,3.509-3.51,8.8,8.8,0,0,0,.558-2.913c.059-1.28.072-1.689.072-4.948s-.014-3.668-.072-4.948a8.8,8.8,0,0,0-.558-2.913,6.135,6.135,0,0,0-3.509-3.51,8.806,8.806,0,0,0-2.913-.558C515.668,160.014,515.259,160,512,160Zm0,2.162c3.2,0,3.584.012,4.849.07a6.641,6.641,0,0,1,2.228.413,3.974,3.974,0,0,1,2.277,2.277,6.644,6.644,0,0,1,.413,2.228c.058,1.265.07,1.645.07,4.849s-.012,3.584-.07,4.849a6.645,6.645,0,0,1-.413,2.228,3.974,3.974,0,0,1-2.277,2.277,6.642,6.642,0,0,1-2.228.413c-1.265.058-1.645.07-4.849.07s-3.584-.012-4.849-.07a6.641,6.641,0,0,1-2.228-.413,3.973,3.973,0,0,1-2.277-2.277,6.636,6.636,0,0,1-.413-2.228c-.058-1.265-.07-1.645-.07-4.849s.012-3.584.07-4.849a6.635,6.635,0,0,1,.413-2.228,3.974,3.974,0,0,1,2.277-2.277,6.64,6.64,0,0,1,2.228-.413C508.416,162.174,508.8,162.162,512,162.162Zm0,3.676A6.162,6.162,0,1,0,518.162,172,6.162,6.162,0,0,0,512,165.838ZM512,176a4,4,0,1,1,4-4A4,4,0,0,1,512,176Zm7.846-10.406a1.44,1.44,0,1,1-1.44-1.44A1.44,1.44,0,0,1,519.846,165.594Z" transform="translate(-500 -160)" fill="#333" fill-rule="evenodd"/>
</svg>
