<svg xmlns="http://www.w3.org/2000/svg" width="20" height="20" viewBox="0 0 20 20">
  <g id="Сгруппировать_600" data-name="Сгруппировать 600" transform="translate(-1327 -24)">
    <rect id="Прямоугольник_463" data-name="Прямоугольник 463" width="20" height="20" transform="translate(1327 24)" fill="#fff" opacity="0"/>
    <path id="Контур_269" data-name="Контур 269" d="M3.545-.682h9.834a2.076,2.076,0,0,1-2.1,2.139A2.068,2.068,0,0,1,9.189-.682H7.666a3.611,3.611,0,0,0,3.613,3.495A3.607,3.607,0,0,0,14.9-.682h4.121c.918,0,1.475-.474,1.475-1.171,0-.968-1-1.839-1.836-2.7a5.488,5.488,0,0,1-.9-3.156C17.7-11.524,16.7-13.993,14.1-14.922a2.915,2.915,0,0,0-2.822-2.265,2.9,2.9,0,0,0-2.812,2.265c-2.6.929-3.594,3.4-3.662,7.212a5.488,5.488,0,0,1-.9,3.156c-.85.862-1.836,1.733-1.836,2.7C2.07-1.157,2.617-.682,3.545-.682Zm.42-1.462V-2.26c.176-.29.762-.852,1.27-1.423.7-.774,1.035-2.014,1.123-3.911.078-4.221,1.348-5.576,3.018-6.021a.43.43,0,0,0,.391-.426,1.569,1.569,0,0,1,1.514-1.723A1.576,1.576,0,0,1,12.8-14.041a.422.422,0,0,0,.381.426c1.68.445,2.949,1.8,3.027,6.021.088,1.9.42,3.136,1.113,3.911a17.273,17.273,0,0,1,1.27,1.423v.116Z" transform="translate(1325.93 41.188)" fill="#e00e55"/>
  </g>
</svg>
