<svg xmlns="http://www.w3.org/2000/svg" width="20" height="20" viewBox="0 0 20 20">
  <g id="Сгруппировать_601" data-name="Сгруппировать 601" transform="translate(-1260 -24)">
    <rect id="Прямоугольник_465" data-name="Прямоугольник 465" width="20" height="20" transform="translate(1260 24)" fill="#fff" opacity="0"/>
    <path id="Контур_270" data-name="Контур 270" d="M3.545-.988H19.023c.918,0,1.475-.466,1.475-1.15,0-.95-1-1.805-1.836-2.651a5.314,5.314,0,0,1-.9-3.1C17.7-11.534,16.7-14.052,14.1-14.964a2.938,2.938,0,0,0-2.822-2.223,2.926,2.926,0,0,0-2.812,2.223c-2.6.912-3.594,3.43-3.662,7.078a5.314,5.314,0,0,1-.9,3.1c-.85.846-1.836,1.7-1.836,2.651C2.07-1.454,2.617-.988,3.545-.988Zm7.734,3.8a2.91,2.91,0,0,0,3-2.508H8.291A2.907,2.907,0,0,0,11.279,2.813Z" transform="translate(1258.93 41.188)" fill="#fff"/>
  </g>
</svg>
