<svg xmlns="http://www.w3.org/2000/svg" xmlns:xlink="http://www.w3.org/1999/xlink" width="20" height="20" viewBox="0 0 20 20">
  <defs>
    <clipPath id="clip-path">
      <rect id="Прямоугольник_181" data-name="Прямоугольник 181" width="20" height="20" transform="translate(928 18)" fill="none"/>
    </clipPath>
  </defs>
  <g id="Группа_масок_28" data-name="Группа масок 28" transform="translate(-928 -18)" clip-path="url(#clip-path)">
    <g id="person-outline" transform="translate(926.571 16.571)">
      <path id="Контур_43" data-name="Контур 43" d="M15.357,6.429c-.175,2.36-1.964,4.286-3.929,4.286S7.672,8.789,7.5,6.429a3.85,3.85,0,0,1,3.929-4.286A3.872,3.872,0,0,1,15.357,6.429Z" fill="none" stroke="#fff" stroke-linecap="round" stroke-linejoin="round" stroke-width="1.429"/>
      <path id="Контур_44" data-name="Контур 44" d="M11.429,13.571c-3.884,0-7.826,2.143-8.555,6.188a.75.75,0,0,0,.7.955H19.286a.75.75,0,0,0,.7-.955C19.254,15.714,15.313,13.571,11.429,13.571Z" fill="none" stroke="#fff" stroke-miterlimit="10" stroke-width="1.429"/>
    </g>
  </g>
</svg>
