<svg xmlns="http://www.w3.org/2000/svg" width="26" height="26" viewBox="0 0 26 26">
  <path id="Многоугольник_1" data-name="Многоугольник 1" d="M15.75,1.908a2,2,0,0,1,3.148,1.3l.308,1.923a2,2,0,0,0,1.659,1.659l1.923.308a2,2,0,0,1,1.3,3.148L22.95,11.827a2,2,0,0,0,0,2.346l1.142,1.577a2,2,0,0,1-1.3,3.148l-1.923.308a2,2,0,0,0-1.659,1.659L18.9,22.788a2,2,0,0,1-3.148,1.3L14.173,22.95a2,2,0,0,0-2.346,0L10.25,24.092a2,2,0,0,1-3.148-1.3l-.308-1.923a2,2,0,0,0-1.659-1.659L3.212,18.9a2,2,0,0,1-1.3-3.148L3.05,14.173a2,2,0,0,0,0-2.346L1.908,10.25A2,2,0,0,1,3.212,7.1l1.923-.308A2,2,0,0,0,6.794,5.135L7.1,3.212a2,2,0,0,1,3.148-1.3L11.827,3.05a2,2,0,0,0,2.346,0Z" fill="#fbe1e0" opacity="0.6"/>
</svg>
