<svg xmlns="http://www.w3.org/2000/svg" xmlns:xlink="http://www.w3.org/1999/xlink" width="24" height="24" viewBox="0 0 24 24">
  <defs>
    <clipPath id="clip-path">
      <rect id="Прямоугольник_320" data-name="Прямоугольник 320" width="24" height="24" transform="translate(24 225)" fill="#aaa"/>
    </clipPath>
  </defs>
  <g id="Группа_масок_71" data-name="Группа масок 71" transform="translate(-24 -225)" opacity="0.999" clip-path="url(#clip-path)">
    <g id="_001-makeup-6" data-name="001-makeup-6" transform="translate(26.013 225)">
      <g id="Сгруппировать_332" data-name="Сгруппировать 332" transform="translate(4.721 13.718)">
        <g id="Сгруппировать_331" data-name="Сгруппировать 331">
          <path id="Контур_144" data-name="Контур 144" d="M8.849,11.569a.469.469,0,0,0-.663,0,1.256,1.256,0,0,1-1.774,0,.469.469,0,0,0-.663.663,2.195,2.195,0,0,0,3.1,0A.469.469,0,0,0,8.849,11.569Z" transform="translate(-5.612 -11.432)" fill="#aaa"/>
        </g>
      </g>
      <g id="Сгруппировать_334" data-name="Сгруппировать 334" transform="translate(11.878 13.718)">
        <g id="Сгруппировать_333" data-name="Сгруппировать 333">
          <path id="Контур_145" data-name="Контур 145" d="M14.813,11.569a.469.469,0,0,0-.663,0,1.256,1.256,0,0,1-1.774,0,.469.469,0,0,0-.663.663,2.195,2.195,0,0,0,3.1,0A.469.469,0,0,0,14.813,11.569Z" transform="translate(-11.576 -11.432)" fill="#aaa"/>
        </g>
      </g>
      <g id="Сгруппировать_336" data-name="Сгруппировать 336" transform="translate(0)">
        <g id="Сгруппировать_335" data-name="Сгруппировать 335">
          <path id="Контур_146" data-name="Контур 146" d="M21.649,13.437a2.032,2.032,0,0,0-1.823-2.014v-.736a8.152,8.152,0,0,0-3.432-6.645,4.782,4.782,0,0,0-9.448,0,8.152,8.152,0,0,0-3.432,6.645v.735A2.032,2.032,0,0,0,1.68,13.437l0,1.187a2.028,2.028,0,0,0,2.028,2.032h.227a10.585,10.585,0,0,0,7.619,7.329.469.469,0,0,0,.226,0l.008,0a10.618,10.618,0,0,0,2.46-.95.469.469,0,1,0-.444-.826,9.679,9.679,0,0,1-2.137.839A9.65,9.65,0,0,1,4.452,13.7v-.6l.2-.046a23.362,23.362,0,0,0,7.538-3.188,8.371,8.371,0,0,0,6.644,3.276h.054V13.7a9.69,9.69,0,0,1-1.147,4.568.469.469,0,1,0,.826.443,10.57,10.57,0,0,0,.835-2.05h.22a2.028,2.028,0,0,0,2.028-2.032ZM3.706,15.719h0a1.091,1.091,0,0,1-1.091-1.093l0-1.187a1.093,1.093,0,0,1,.9-1.071V13.7a10.669,10.669,0,0,0,.193,2.021h0ZM11.67.937a3.838,3.838,0,0,1,3.571,2.418,8.146,8.146,0,0,0-7.143,0A3.838,3.838,0,0,1,11.67.937ZM18.889,12v.2h-.054a7.434,7.434,0,0,1-5.867-2.865q.487-.345.955-.715a.469.469,0,0,0-.581-.735,22.4,22.4,0,0,1-8.89,4.25V10.687a7.219,7.219,0,1,1,14.437,0V12ZM20.4,15.4a1.083,1.083,0,0,1-.765.32,10.6,10.6,0,0,0,.2-2.023V12.37a1.093,1.093,0,0,1,.885,1.069l0,1.187A1.083,1.083,0,0,1,20.4,15.4Z" transform="translate(-1.678)" fill="#aaa"/>
        </g>
      </g>
      <g id="Сгруппировать_338" data-name="Сгруппировать 338" transform="translate(12.744 6.714)">
        <g id="Сгруппировать_337" data-name="Сгруппировать 337">
          <path id="Контур_147" data-name="Контур 147" d="M13.122,5.751a.469.469,0,0,0-.662-.037l-.006.006a.469.469,0,0,0,.625.7l.006-.006A.469.469,0,0,0,13.122,5.751Z" transform="translate(-12.297 -5.595)" fill="#aaa"/>
        </g>
      </g>
      <g id="Сгруппировать_340" data-name="Сгруппировать 340" transform="translate(10.308 16.226)">
        <g id="Сгруппировать_339" data-name="Сгруппировать 339">
          <path id="Контур_148" data-name="Контур 148" d="M18.359,19.289,15.77,16.7l-1-2.6a.9.9,0,0,0-1-.56,4.367,4.367,0,0,0-3.494,3.493l0,.011a.9.9,0,0,0,.538.987l2.555,1.059,2.073,2.073a.469.469,0,1,0,.663-.663L14.3,18.688l1.064-1.064L17.7,19.952a.469.469,0,0,0,.663-.663ZM13.53,18.135l-2.32-.961a3.426,3.426,0,0,1,2.7-2.709l.91,2.379Z" transform="translate(-10.267 -13.521)" fill="#aaa"/>
        </g>
      </g>
      <g id="Сгруппировать_342" data-name="Сгруппировать 342" transform="translate(18.806 23.062)">
        <g id="Сгруппировать_341" data-name="Сгруппировать 341">
          <path id="Контур_149" data-name="Контур 149" d="M18.149,19.356a.468.468,0,1,0,.137.331A.472.472,0,0,0,18.149,19.356Z" transform="translate(-17.349 -19.219)" fill="#aaa"/>
        </g>
      </g>
    </g>
  </g>
</svg>
