<svg xmlns="http://www.w3.org/2000/svg" xmlns:xlink="http://www.w3.org/1999/xlink" width="24" height="24" viewBox="0 0 24 24">
  <defs>
    <clipPath id="clip-path">
      <rect id="Прямоугольник_320" data-name="Прямоугольник 320" width="24" height="24" transform="translate(24 225)" fill="#aaa"/>
    </clipPath>
  </defs>
  <g id="Группа_масок_79" data-name="Группа масок 79" transform="translate(-24 -225)" opacity="0.999" clip-path="url(#clip-path)">
    <g id="_047-cream" data-name="047-cream" transform="translate(24 226.266)">
      <g id="Сгруппировать_440" data-name="Сгруппировать 440" transform="translate(4.969 13.309)">
        <g id="Сгруппировать_439" data-name="Сгруппировать 439">
          <path id="Контур_198" data-name="Контур 198" d="M17.266,12.145H5.078a.939.939,0,0,0-.938.938V16.27a.939.939,0,0,0,.938.938H17.266a.939.939,0,0,0,.938-.937V13.083A.939.939,0,0,0,17.266,12.145Zm0,4.125H5.078V13.083H17.266V16.27Z" transform="translate(-4.141 -12.145)" fill="#aaa"/>
        </g>
      </g>
      <g id="Сгруппировать_442" data-name="Сгруппировать 442" transform="translate(11.953 20.531)">
        <g id="Сгруппировать_441" data-name="Сгруппировать 441">
          <path id="Контур_199" data-name="Контур 199" d="M10.761,18.3a.469.469,0,1,0,.137.331A.472.472,0,0,0,10.761,18.3Z" transform="translate(-9.961 -18.164)" fill="#aaa"/>
        </g>
      </g>
      <g id="Сгруппировать_444" data-name="Сгруппировать 444" transform="translate(0 0)">
        <g id="Сгруппировать_443" data-name="Сгруппировать 443">
          <path id="Контур_200" data-name="Контур 200" d="M22.594,11.266h-.75V9.578a.939.939,0,0,0-.937-.938H19.7a3.6,3.6,0,0,0,.035-5.309L17.423,1.18a.469.469,0,0,0-.788.343v.271a2.349,2.349,0,0,1-2.349,2.349H6.117a2.715,2.715,0,0,0-2.05,4.5H3.094a.939.939,0,0,0-.937.938v1.687h-.75A1.408,1.408,0,0,0,0,12.672V17.93a4.6,4.6,0,0,0,4.594,4.594h6a.469.469,0,0,0,0-.937h-6A3.66,3.66,0,0,1,.937,17.93V12.672a.469.469,0,0,1,.469-.469H22.594a.469.469,0,0,1,.469.469V17.93a3.66,3.66,0,0,1-3.656,3.656H14.484a.469.469,0,0,0,0,.938h4.922A4.6,4.6,0,0,0,24,17.93V12.672A1.408,1.408,0,0,0,22.594,11.266ZM6.117,5.082h8.169a3.3,3.3,0,0,0,2.062-.727,3.271,3.271,0,0,0,1.144-1.829l1.6,1.492a2.67,2.67,0,0,1-1.82,4.623H6.117a1.779,1.779,0,0,1,0-3.559Zm14.789,6.184H3.094V9.578H20.906Z" transform="translate(0 -1.055)" fill="#aaa"/>
        </g>
      </g>
      <g id="Сгруппировать_446" data-name="Сгруппировать 446" transform="translate(7.828 15.371)">
        <g id="Сгруппировать_445" data-name="Сгруппировать 445">
          <path id="Контур_201" data-name="Контур 201" d="M14.4,13.864H6.992a.469.469,0,0,0,0,.938H14.4a.469.469,0,0,0,0-.937Z" transform="translate(-6.523 -13.864)" fill="#aaa"/>
        </g>
      </g>
      <g id="Сгруппировать_448" data-name="Сгруппировать 448" transform="translate(7.484 4.964)">
        <g id="Сгруппировать_447" data-name="Сгруппировать 447">
          <path id="Контур_202" data-name="Контур 202" d="M10.049,5.192H6.706a.469.469,0,0,0,0,.938h3.344a.469.469,0,0,0,0-.937Z" transform="translate(-6.237 -5.192)" fill="#aaa"/>
        </g>
      </g>
      <g id="Сгруппировать_450" data-name="Сгруппировать 450" transform="translate(12.773 4.965)">
        <g id="Сгруппировать_449" data-name="Сгруппировать 449">
          <path id="Контур_203" data-name="Контур 203" d="M11.445,5.329a.469.469,0,1,0,.137.331A.472.472,0,0,0,11.445,5.329Z" transform="translate(-10.645 -5.192)" fill="#aaa"/>
        </g>
      </g>
    </g>
  </g>
</svg>
