<svg xmlns="http://www.w3.org/2000/svg" xmlns:xlink="http://www.w3.org/1999/xlink" width="24" height="24" viewBox="0 0 24 24">
  <defs>
    <clipPath id="clip-path">
      <rect id="Прямоугольник_320" data-name="Прямоугольник 320" width="24" height="24" transform="translate(24 225)" fill="#aaa"/>
    </clipPath>
  </defs>
  <g id="Группа_масок_82" data-name="Группа масок 82" transform="translate(-24 -225)" opacity="0.999" clip-path="url(#clip-path)">
    <g id="_029-brush" data-name="029-brush" transform="translate(24.008 225)">
      <g id="Сгруппировать_490" data-name="Сгруппировать 490" transform="translate(0 0)">
        <g id="Сгруппировать_489" data-name="Сгруппировать 489">
          <path id="Контур_223" data-name="Контур 223" d="M21.174,2.817A9.534,9.534,0,0,0,14.187,0a2.416,2.416,0,0,0-2.332,1.939L10.3,9.479.634,19.15a2.149,2.149,0,0,0,0,3.035L1.82,23.371a2.146,2.146,0,0,0,3.035,0L14.329,13.9l.043-.007,7.721-1.735a2.423,2.423,0,0,0,1.9-2.322V9.8A9.535,9.535,0,0,0,21.174,2.817ZM4.193,22.709a1.209,1.209,0,0,1-1.71,0l-.328-.328,1.765-1.765a.468.468,0,0,0-.663-.663L1.492,21.719l-.2-.2a1.211,1.211,0,0,1,0-1.71L6.43,14.679l2.9,2.9Zm5.8-5.8-2.9-2.9,3.549-3.549,2.9,2.9ZM23.052,9.786v.029a1.489,1.489,0,0,1-1.164,1.426L14.418,12.92l-.383-.383,3.208-1.387a.468.468,0,1,0-.372-.86l-3.549,1.534-.235-.235,1.8-1.8a.468.468,0,1,0-.663-.663l-1.8,1.8L12.2,10.7l1.534-3.549a.468.468,0,1,0-.86-.372L11.488,9.99l-.275-.275,1.56-7.585A1.484,1.484,0,0,1,14.2.939a8.68,8.68,0,0,1,8.847,8.847Z" transform="translate(-0.006 0)" fill="#aaa"/>
        </g>
      </g>
      <g id="Сгруппировать_492" data-name="Сгруппировать 492" transform="translate(15.326 7.745)">
        <g id="Сгруппировать_491" data-name="Сгруппировать 491">
          <path id="Контур_224" data-name="Контур 224" d="M13.578,6.592a.468.468,0,1,0,.137.331A.471.471,0,0,0,13.578,6.592Z" transform="translate(-12.778 -6.454)" fill="#aaa"/>
        </g>
      </g>
      <g id="Сгруппировать_494" data-name="Сгруппировать 494" transform="translate(4.331 18.598)">
        <g id="Сгруппировать_493" data-name="Сгруппировать 493">
          <path id="Контур_225" data-name="Контур 225" d="M4.416,15.636a.469.469,0,1,0,.137.331A.472.472,0,0,0,4.416,15.636Z" transform="translate(-3.616 -15.499)" fill="#aaa"/>
        </g>
      </g>
    </g>
  </g>
</svg>
