<svg xmlns="http://www.w3.org/2000/svg" xmlns:xlink="http://www.w3.org/1999/xlink" width="24" height="24" viewBox="0 0 24 24">
  <defs>
    <clipPath id="clip-path">
      <rect id="Прямоугольник_320" data-name="Прямоугольник 320" width="24" height="24" fill="#aaa"/>
    </clipPath>
  </defs>
  <g id="Группа_масок_81" data-name="Группа масок 81" opacity="0.999" clip-path="url(#clip-path)">
    <g id="_011-spray" data-name="011-spray" transform="translate(1.263)">
      <g id="Сгруппировать_466" data-name="Сгруппировать 466" transform="translate(14.183 12.844)">
        <g id="Сгруппировать_465" data-name="Сгруппировать 465">
          <path id="Контур_211" data-name="Контур 211" d="M1.862,14.045l0,0,2.464-3.158a.469.469,0,0,1,.37-.18h0a.469.469,0,0,1,.37.18L7.52,14.025l.016.021a3.646,3.646,0,1,1-5.673,0Zm2.836,5a2.708,2.708,0,0,0,2.089-4.432.461.461,0,0,1-.03-.04L4.7,11.934,2.612,14.608l-.014.018a2.677,2.677,0,0,0-.608,1.709A2.711,2.711,0,0,0,4.7,19.044Z" transform="translate(-1.052 -10.703)" fill="#aaa"/>
        </g>
      </g>
      <g id="Сгруппировать_468" data-name="Сгруппировать 468" transform="translate(0 1.266)">
        <g id="Сгруппировать_467" data-name="Сгруппировать 467">
          <path id="Контур_212" data-name="Контур 212" d="M13.672,5.4V4.055a.469.469,0,0,1,.372-.459V1.524a.469.469,0,0,1,.469-.469h2.25a.469.469,0,0,1,.469.469V3.6a.469.469,0,0,1,.372.459V5.4a3.473,3.473,0,0,1,3,3.436V21.445a2.346,2.346,0,0,1-2.344,2.344H13.01a2.346,2.346,0,0,1-2.344-2.344V8.836A3.473,3.473,0,0,1,13.672,5.4Zm2.622-3.407H14.982V3.586h1.312Zm.372,2.531H14.61v.844h2.057Zm3,6.516H16.2a.469.469,0,0,0-.469.469v7.5a.469.469,0,0,0,.469.469h3.463ZM11.6,21.445a1.408,1.408,0,0,0,1.406,1.406h5.25a1.408,1.408,0,0,0,1.406-1.406V20.414H16.2A1.408,1.408,0,0,1,14.8,19.008v-7.5A1.408,1.408,0,0,1,16.2,10.1h3.463V8.836A2.534,2.534,0,0,0,17.135,6.3h-3A2.534,2.534,0,0,0,11.6,8.836Z" transform="translate(-10.667 -1.055)" fill="#aaa"/>
        </g>
      </g>
      <g id="Сгруппировать_470" data-name="Сгруппировать 470" transform="translate(17.36 10.787)">
        <g id="Сгруппировать_469" data-name="Сгруппировать 469">
          <path id="Контур_213" data-name="Контур 213" d="M3.837,9.126a.468.468,0,1,1-.137.331A.47.47,0,0,1,3.837,9.126Z" transform="translate(-3.7 -8.989)" fill="#aaa"/>
        </g>
      </g>
      <g id="Сгруппировать_472" data-name="Сгруппировать 472" transform="translate(17.36 8.877)">
        <g id="Сгруппировать_471" data-name="Сгруппировать 471">
          <path id="Контур_214" data-name="Контур 214" d="M3.837,7.535a.468.468,0,1,1-.137.331A.472.472,0,0,1,3.837,7.535Z" transform="translate(-3.7 -7.398)" fill="#aaa"/>
        </g>
      </g>
      <g id="Сгруппировать_474" data-name="Сгруппировать 474" transform="translate(17.36 6.968)">
        <g id="Сгруппировать_473" data-name="Сгруппировать 473">
          <path id="Контур_215" data-name="Контур 215" d="M3.837,5.944a.468.468,0,1,1-.137.331A.471.471,0,0,1,3.837,5.944Z" transform="translate(-3.7 -5.807)" fill="#aaa"/>
        </g>
      </g>
      <g id="Сгруппировать_476" data-name="Сгруппировать 476" transform="translate(9.173 2.539)">
        <g id="Сгруппировать_475" data-name="Сгруппировать 475">
          <path id="Контур_216" data-name="Контур 216" d="M9.292,2.116h2.04a.469.469,0,0,1,0,.937H9.292a.469.469,0,0,1,0-.937Z" transform="translate(-8.823 -2.116)" fill="#aaa"/>
        </g>
      </g>
      <g id="Сгруппировать_478" data-name="Сгруппировать 478" transform="translate(7.52 2.539)">
        <g id="Сгруппировать_477" data-name="Сгруппировать 477">
          <path id="Контур_217" data-name="Контур 217" d="M12.037,2.253a.469.469,0,1,1-.137.331A.47.47,0,0,1,12.037,2.253Z" transform="translate(-11.9 -2.116)" fill="#aaa"/>
        </g>
      </g>
      <g id="Сгруппировать_480" data-name="Сгруппировать 480" transform="translate(12.99 2.539)">
        <g id="Сгруппировать_479" data-name="Сгруппировать 479">
          <path id="Контур_218" data-name="Контур 218" d="M7.479,2.253a.469.469,0,1,1-.137.332A.472.472,0,0,1,7.479,2.253Z" transform="translate(-7.341 -2.116)" fill="#aaa"/>
        </g>
      </g>
      <g id="Сгруппировать_482" data-name="Сгруппировать 482" transform="translate(8.792 4.032)">
        <g id="Сгруппировать_481" data-name="Сгруппировать 481">
          <path id="Контур_219" data-name="Контур 219" d="M9.343,3.6a.469.469,0,0,1,.638-.18l1.867,1.046a.469.469,0,1,1-.458.818L9.523,4.238A.469.469,0,0,1,9.343,3.6Z" transform="translate(-9.283 -3.36)" fill="#aaa"/>
        </g>
      </g>
      <g id="Сгруппировать_484" data-name="Сгруппировать 484" transform="translate(8.792 0)">
        <g id="Сгруппировать_483" data-name="Сгруппировать 483">
          <path id="Контур_220" data-name="Контур 220" d="M9.523,1.106,11.39.06a.469.469,0,0,1,.458.818L9.981,1.924a.469.469,0,0,1-.458-.818Z" transform="translate(-9.283 0)" fill="#aaa"/>
        </g>
      </g>
      <g id="Сгруппировать_486" data-name="Сгруппировать 486" transform="translate(2.068 13.453)">
        <g id="Сгруппировать_485" data-name="Сгруппировать 485">
          <path id="Контур_221" data-name="Контур 221" d="M16.912,11.211a.469.469,0,0,1,.469.469v3.561a.469.469,0,1,1-.937,0V11.68A.469.469,0,0,1,16.912,11.211Z" transform="translate(-16.443 -11.211)" fill="#aaa"/>
        </g>
      </g>
      <g id="Сгруппировать_488" data-name="Сгруппировать 488" transform="translate(2.068 11.813)">
        <g id="Сгруппировать_487" data-name="Сгруппировать 487">
          <path id="Контур_222" data-name="Контур 222" d="M16.58,9.981a.468.468,0,1,1-.137.331A.472.472,0,0,1,16.58,9.981Z" transform="translate(-16.443 -9.844)" fill="#aaa"/>
        </g>
      </g>
    </g>
  </g>
</svg>
