<svg xmlns="http://www.w3.org/2000/svg" xmlns:xlink="http://www.w3.org/1999/xlink" width="24" height="24" viewBox="0 0 24 24">
  <defs>
    <clipPath id="clip-path">
      <rect id="Прямоугольник_320" data-name="Прямоугольник 320" width="24" height="24" fill="#aaa"/>
    </clipPath>
  </defs>
  <g id="Группа_масок_78" data-name="Группа масок 78" opacity="0.999" clip-path="url(#clip-path)">
    <g id="_017-soap" data-name="017-soap" transform="translate(1.266)">
      <g id="Сгруппировать_430" data-name="Сгруппировать 430" transform="translate(13.314 5.063)">
        <g id="Сгруппировать_429" data-name="Сгруппировать 429">
          <path id="Контур_193" data-name="Контур 193" d="M1.961,7.99l0,0L4.763,4.4a.469.469,0,0,1,.739,0L8.287,7.968l.017.023a4.077,4.077,0,1,1-6.343,0Zm3.171,5.7A3.14,3.14,0,0,0,7.554,8.555a.468.468,0,0,1-.031-.042L5.132,5.449l-2.421,3.1L2.7,8.571a3.14,3.14,0,0,0,2.435,5.122Z" transform="translate(-1.055 -4.219)" fill="#aaa"/>
        </g>
      </g>
      <g id="Сгруппировать_432" data-name="Сгруппировать 432" transform="translate(2.063 16.781)">
        <g id="Сгруппировать_431" data-name="Сгруппировать 431">
          <path id="Контур_194" data-name="Контур 194" d="M16.914,13.984a.469.469,0,0,1,.469.469v4.078a.469.469,0,1,1-.937,0V14.453A.469.469,0,0,1,16.914,13.984Z" transform="translate(-16.445 -13.984)" fill="#aaa"/>
        </g>
      </g>
      <g id="Сгруппировать_434" data-name="Сгруппировать 434" transform="translate(2.063 15.047)">
        <g id="Сгруппировать_433" data-name="Сгруппировать 433">
          <path id="Контур_195" data-name="Контур 195" d="M16.583,12.676a.468.468,0,1,1-.137.331A.472.472,0,0,1,16.583,12.676Z" transform="translate(-16.445 -12.539)" fill="#aaa"/>
        </g>
      </g>
      <g id="Сгруппировать_436" data-name="Сгруппировать 436">
        <g id="Сгруппировать_435" data-name="Сгруппировать 435">
          <path id="Контур_196" data-name="Контур 196" d="M9.014,7.238v-1.2A1.545,1.545,0,0,1,10.557,4.5h.074V.469A.469.469,0,0,1,11.1,0h4.125a.469.469,0,0,1,.469.469V.656h3.141a1.4,1.4,0,0,1,.994.412L21.071,2.31a.469.469,0,0,1,0,.663L19.745,4.3a.469.469,0,0,1-.663,0l-.83-.83H15.694V4.5h.027a1.545,1.545,0,0,1,1.543,1.543V7.217a2.347,2.347,0,0,1,1.43,2.158V21.656A2.346,2.346,0,0,1,16.35,24H9.975a2.346,2.346,0,0,1-2.344-2.344V9.375A2.346,2.346,0,0,1,9.014,7.238ZM14.756,3V.937H11.569V4.5h3.188Zm3.69-.469a.469.469,0,0,1,.331.137l.636.636.663-.663-.911-.911a.466.466,0,0,0-.332-.137H15.694v.938Zm-2.12,3.512a.606.606,0,0,0-.605-.605H10.557a.606.606,0,0,0-.605.605v.988h6.375Zm1.43,13.251a3.3,3.3,0,0,1-2.828-3.263.469.469,0,0,1,.938,0,2.363,2.363,0,0,0,1.891,2.312V11.461a4.594,4.594,0,0,0,0,9.14ZM8.569,21.656a1.408,1.408,0,0,0,1.406,1.406H16.35a1.408,1.408,0,0,0,1.406-1.406v-.114a5.531,5.531,0,0,1,0-11.022V9.375A1.408,1.408,0,0,0,16.35,7.969H9.975A1.408,1.408,0,0,0,8.569,9.375Z" transform="translate(-7.631 0)" fill="#aaa"/>
        </g>
      </g>
      <g id="Сгруппировать_438" data-name="Сгруппировать 438" transform="translate(7.858 13.781)">
        <g id="Сгруппировать_437" data-name="Сгруппировать 437">
          <path id="Контур_197" data-name="Контур 197" d="M11.764,11.61a.469.469,0,0,1,.64.685l0,0a.464.464,0,0,1-.316.124.469.469,0,0,1-.319-.814Z" transform="translate(-11.615 -11.484)" fill="#aaa"/>
        </g>
      </g>
    </g>
  </g>
</svg>
