<svg xmlns="http://www.w3.org/2000/svg" xmlns:xlink="http://www.w3.org/1999/xlink" width="24" height="24" viewBox="0 0 24 24">
  <defs>
    <clipPath id="clip-path">
      <rect id="Прямоугольник_320" data-name="Прямоугольник 320" width="24" height="24" transform="translate(24 225)" fill="#aaa"/>
    </clipPath>
  </defs>
  <g id="Группа_масок_80" data-name="Группа масок 80" transform="translate(-24 -225)" opacity="0.999" clip-path="url(#clip-path)">
    <g id="_005-cream-2" data-name="005-cream-2" transform="translate(26.531 225)">
      <g id="Сгруппировать_452" data-name="Сгруппировать 452" transform="translate(2.941 4.964)">
        <g id="Сгруппировать_451" data-name="Сгруппировать 451">
          <path id="Контур_204" data-name="Контур 204" d="M7.841,4.137a3.281,3.281,0,1,0,3.281,3.281A3.285,3.285,0,0,0,7.841,4.137Zm0,5.625a2.344,2.344,0,1,1,2.344-2.344A2.346,2.346,0,0,1,7.841,9.762Z" transform="translate(-4.56 -4.137)" fill="#aaa"/>
        </g>
      </g>
      <g id="Сгруппировать_454" data-name="Сгруппировать 454">
        <g id="Сгруппировать_453" data-name="Сгруппировать 453">
          <path id="Контур_205" data-name="Контур 205" d="M14.134.524A1.6,1.6,0,0,0,12.952,0H3.7A1.594,1.594,0,0,0,2.117,1.752L3.679,17.377A1.52,1.52,0,0,0,4.2,18.383v4.211A1.408,1.408,0,0,0,5.609,24h5.438a1.408,1.408,0,0,0,1.406-1.406V18.383a1.52,1.52,0,0,0,.523-1.006L13.8,9.156a.469.469,0,1,0-.933-.093l-.822,8.221a.585.585,0,0,1-.584.529H5.2a.586.586,0,0,1-.584-.529L3.2,3.187H7.429a.469.469,0,1,0,0-.937H3.109L3.05,1.659A.656.656,0,0,1,3.7.937h9.249a.656.656,0,0,1,.653.721L13.2,5.74a.469.469,0,1,0,.933.093l.408-4.081A1.6,1.6,0,0,0,14.134.524ZM5.14,18.75h6.375v2.434h-1.8a2.175,2.175,0,0,0-2.773,0H5.14V18.75Zm0,3.371H7.122a.469.469,0,0,0,.331-.137,1.236,1.236,0,0,1,1.748,0,.469.469,0,0,0,.331.137h1.982v.472a.469.469,0,0,1-.469.469H5.609a.469.469,0,0,1-.469-.469Z" transform="translate(-2.109)" fill="#aaa"/>
        </g>
      </g>
      <g id="Сгруппировать_456" data-name="Сгруппировать 456" transform="translate(10.92 6.971)">
        <g id="Сгруппировать_455" data-name="Сгруппировать 455">
          <path id="Контур_206" data-name="Контур 206" d="M12.009,5.947a.469.469,0,1,0,.137.331A.469.469,0,0,0,12.009,5.947Z" transform="translate(-11.209 -5.809)" fill="#aaa"/>
        </g>
      </g>
      <g id="Сгруппировать_458" data-name="Сгруппировать 458" transform="translate(3.984 12.839)">
        <g id="Сгруппировать_457" data-name="Сгруппировать 457">
          <path id="Контур_207" data-name="Контур 207" d="M9.437,10.7H5.9a.469.469,0,0,0,0,.938H9.437a.469.469,0,0,0,0-.937Z" transform="translate(-5.429 -10.699)" fill="#aaa"/>
        </g>
      </g>
      <g id="Сгруппировать_460" data-name="Сгруппировать 460" transform="translate(5.015 14.714)">
        <g id="Сгруппировать_459" data-name="Сгруппировать 459">
          <path id="Контур_208" data-name="Контур 208" d="M8.234,12.262H6.757a.469.469,0,0,0,0,.938H8.234a.469.469,0,0,0,0-.937Z" transform="translate(-6.288 -12.262)" fill="#aaa"/>
        </g>
      </g>
      <g id="Сгруппировать_462" data-name="Сгруппировать 462" transform="translate(13.073 10.945)">
        <g id="Сгруппировать_461" data-name="Сгруппировать 461">
          <path id="Контур_209" data-name="Контур 209" d="M18.093,14.091c-2.186-2.731-1.615-4.19-1.576-4.28a.457.457,0,0,0-.069-.549.474.474,0,0,0-.563-.084c-.1.052-2.422,1.288-2.822,3.2a2.969,2.969,0,0,0,.7,2.534c2.141,2.675,1.711,3.942,1.67,4.047a.458.458,0,0,0,.4.7.51.51,0,0,0,.22-.05c.1-.046,2.335-1.139,2.749-2.954A2.938,2.938,0,0,0,18.093,14.091Zm-.205,2.343a3.472,3.472,0,0,1-1.456,1.84A7.572,7.572,0,0,0,14.5,14.32a2.052,2.052,0,0,1-.52-1.753,3.8,3.8,0,0,1,1.5-2.008c0,.1.011.2.023.3a7.792,7.792,0,0,0,1.856,3.815A2.026,2.026,0,0,1,17.888,16.434Z" transform="translate(-13.004 -9.121)" fill="#aaa"/>
        </g>
      </g>
      <g id="Сгруппировать_464" data-name="Сгруппировать 464" transform="translate(6.937 2.25)">
        <g id="Сгруппировать_463" data-name="Сгруппировать 463">
          <path id="Контур_210" data-name="Контур 210" d="M8.69,2.012a.468.468,0,1,0,.137.331A.472.472,0,0,0,8.69,2.012Z" transform="translate(-7.89 -1.875)" fill="#aaa"/>
        </g>
      </g>
    </g>
  </g>
</svg>
