<svg xmlns="http://www.w3.org/2000/svg" xmlns:xlink="http://www.w3.org/1999/xlink" width="24" height="24" viewBox="0 0 24 24">
  <defs>
    <clipPath id="clip-path">
      <rect id="Прямоугольник_320" data-name="Прямоугольник 320" width="24" height="24" transform="translate(24 225)" fill="#aaa"/>
    </clipPath>
  </defs>
  <g id="Группа_масок_76" data-name="Группа масок 76" transform="translate(-24 -225)" opacity="0.999" clip-path="url(#clip-path)">
    <g id="_003-cotton-1" data-name="003-cotton-1" transform="translate(24 225)">
      <g id="Сгруппировать_384" data-name="Сгруппировать 384" transform="translate(15.079)">
        <g id="Сгруппировать_383" data-name="Сгруппировать 383">
          <path id="Контур_170" data-name="Контур 170" d="M13.367.137a.469.469,0,0,0-.8.331.469.469,0,1,0,.8-.331Z" transform="translate(-12.566)" fill="#aaa"/>
        </g>
      </g>
      <g id="Сгруппировать_386" data-name="Сгруппировать 386">
        <g id="Сгруппировать_385" data-name="Сгруппировать 385">
          <path id="Контур_171" data-name="Контур 171" d="M18.656,0H17.7a.469.469,0,1,0,0,.937h.961a4.411,4.411,0,0,1,4.406,4.406v6.375a4.415,4.415,0,0,1-2.559,4c.018-.176.028-.353.028-.533V13.055a.469.469,0,0,0-.937,0v2.133a4.415,4.415,0,0,1-2.558,4q.026-.263.026-.532V12.281a5.35,5.35,0,0,0-5.344-5.344H5.344q-.269,0-.532.026A4.41,4.41,0,0,1,7.623,4.57a.467.467,0,0,0,.126-.034,4.407,4.407,0,0,1,1.064-.13h6.375a4.411,4.411,0,0,1,4.406,4.406v.82a.469.469,0,1,0,.938,0v-.82a5.35,5.35,0,0,0-5.344-5.344H8.813c-.179,0-.357.01-.533.028a4.409,4.409,0,0,1,4-2.559h1.055a.469.469,0,1,0,0-.937H12.281A5.345,5.345,0,0,0,7.189,3.722,5.344,5.344,0,0,0,3.721,7.19,5.353,5.353,0,0,0,0,12.281v6.375A5.35,5.35,0,0,0,5.344,24h6.375a5.353,5.353,0,0,0,5.091-3.72,5.352,5.352,0,0,0,3.467-3.468A5.352,5.352,0,0,0,24,11.719V5.344A5.35,5.35,0,0,0,18.656,0ZM16.125,18.656a4.411,4.411,0,0,1-4.406,4.406H5.344A4.411,4.411,0,0,1,.937,18.656V12.281A4.414,4.414,0,0,1,4.151,8.039a.468.468,0,0,0,.126-.033,4.4,4.4,0,0,1,1.066-.131h6.375a4.411,4.411,0,0,1,4.406,4.406Z" fill="#aaa"/>
        </g>
      </g>
      <g id="Сгруппировать_388" data-name="Сгруппировать 388" transform="translate(19.594 10.922)">
        <g id="Сгруппировать_387" data-name="Сгруппировать 387">
          <path id="Контур_172" data-name="Контур 172" d="M17.128,9.239a.468.468,0,1,0,.137.331A.472.472,0,0,0,17.128,9.239Z" transform="translate(-16.328 -9.102)" fill="#aaa"/>
        </g>
      </g>
      <g id="Сгруппировать_390" data-name="Сгруппировать 390" transform="translate(2.74 10.623)">
        <g id="Сгруппировать_389" data-name="Сгруппировать 389">
          <path id="Контур_173" data-name="Контур 173" d="M3.235,8.931a.469.469,0,0,0-.65.13,3.053,3.053,0,0,0-.263.486.469.469,0,1,0,.861.37,2.117,2.117,0,0,1,.182-.337A.469.469,0,0,0,3.235,8.931Z" transform="translate(-2.283 -8.852)" fill="#aaa"/>
        </g>
      </g>
      <g id="Сгруппировать_392" data-name="Сгруппировать 392" transform="translate(2.732 18.947)">
        <g id="Сгруппировать_391" data-name="Сгруппировать 391">
          <path id="Контур_174" data-name="Контур 174" d="M3.358,16.414a2.11,2.11,0,0,1-.18-.338.469.469,0,1,0-.864.363,3.054,3.054,0,0,0,.26.488.469.469,0,0,0,.784-.514Z" transform="translate(-2.277 -15.789)" fill="#aaa"/>
        </g>
      </g>
      <g id="Сгруппировать_394" data-name="Сгруппировать 394" transform="translate(4.895 20.522)">
        <g id="Сгруппировать_393" data-name="Сгруппировать 393">
          <path id="Контур_175" data-name="Контур 175" d="M5.017,17.111H4.769c-.061,0-.122,0-.182-.008a.469.469,0,1,0-.079.934c.086.007.174.011.261.011h.247a.469.469,0,0,0,0-.937Z" transform="translate(-4.079 -17.102)" fill="#aaa"/>
        </g>
      </g>
      <g id="Сгруппировать_396" data-name="Сгруппировать 396" transform="translate(2.531 16.162)">
        <g id="Сгруппировать_395" data-name="Сгруппировать 395">
          <path id="Контур_176" data-name="Контур 176" d="M2.578,13.468a.469.469,0,0,0-.469.469v.469a.469.469,0,0,0,.938,0v-.469A.469.469,0,0,0,2.578,13.468Z" transform="translate(-2.109 -13.468)" fill="#aaa"/>
        </g>
      </g>
      <g id="Сгруппировать_398" data-name="Сгруппировать 398" transform="translate(13.286 10.829)">
        <g id="Сгруппировать_397" data-name="Сгруппировать 397">
          <path id="Контур_177" data-name="Контур 177" d="M12.17,9.78a3.045,3.045,0,0,0-.217-.509.469.469,0,1,0-.825.445,2.1,2.1,0,0,1,.15.352.469.469,0,1,0,.892-.288Z" transform="translate(-11.072 -9.025)" fill="#aaa"/>
        </g>
      </g>
      <g id="Сгруппировать_400" data-name="Сгруппировать 400" transform="translate(2.531 13.349)">
        <g id="Сгруппировать_399" data-name="Сгруппировать 399">
          <path id="Контур_178" data-name="Контур 178" d="M2.578,11.124a.469.469,0,0,0-.469.469v.469a.469.469,0,0,0,.938,0v-.469A.469.469,0,0,0,2.578,11.124Z" transform="translate(-2.109 -11.124)" fill="#aaa"/>
        </g>
      </g>
      <g id="Сгруппировать_402" data-name="Сгруппировать 402" transform="translate(4.915 9.469)">
        <g id="Сгруппировать_401" data-name="Сгруппировать 401">
          <path id="Контур_179" data-name="Контур 179" d="M5.033,7.891H4.766c-.079,0-.159,0-.238.009a.469.469,0,0,0,.036.936H4.6c.055,0,.11-.006.166-.006h.267a.469.469,0,1,0,0-.937Z" transform="translate(-4.096 -7.891)" fill="#aaa"/>
        </g>
      </g>
      <g id="Сгруппировать_404" data-name="Сгруппировать 404" transform="translate(13.594 16.403)">
        <g id="Сгруппировать_403" data-name="Сгруппировать 403">
          <path id="Контур_180" data-name="Контур 180" d="M11.8,13.669a.469.469,0,0,0-.469.469v.469a.469.469,0,1,0,.938,0v-.469A.469.469,0,0,0,11.8,13.669Z" transform="translate(-11.328 -13.669)" fill="#aaa"/>
        </g>
      </g>
      <g id="Сгруппировать_406" data-name="Сгруппировать 406" transform="translate(13.031 19.165)">
        <g id="Сгруппировать_405" data-name="Сгруппировать 405">
          <path id="Контур_181" data-name="Контур 181" d="M11.807,16.026a.469.469,0,0,0-.635.192,2.124,2.124,0,0,1-.211.32.469.469,0,1,0,.733.584,3.065,3.065,0,0,0,.3-.462A.469.469,0,0,0,11.807,16.026Z" transform="translate(-10.86 -15.971)" fill="#aaa"/>
        </g>
      </g>
      <g id="Сгруппировать_408" data-name="Сгруппировать 408" transform="translate(13.594 13.591)">
        <g id="Сгруппировать_407" data-name="Сгруппировать 407">
          <path id="Контур_182" data-name="Контур 182" d="M11.8,11.326a.469.469,0,0,0-.469.469v.469a.469.469,0,1,0,.938,0v-.469A.469.469,0,0,0,11.8,11.326Z" transform="translate(-11.328 -11.326)" fill="#aaa"/>
        </g>
      </g>
      <g id="Сгруппировать_410" data-name="Сгруппировать 410" transform="translate(10.52 20.531)">
        <g id="Сгруппировать_409" data-name="Сгруппировать 409">
          <path id="Контур_183" data-name="Контур 183" d="M9.7,17.109H9.235a.469.469,0,0,0,0,.938H9.7a.469.469,0,1,0,0-.937Z" transform="translate(-8.767 -17.109)" fill="#aaa"/>
        </g>
      </g>
      <g id="Сгруппировать_412" data-name="Сгруппировать 412" transform="translate(10.54 9.469)">
        <g id="Сгруппировать_411" data-name="Сгруппировать 411">
          <path id="Контур_184" data-name="Контур 184" d="M10.241,7.935a3.085,3.085,0,0,0-.52-.044H9.252a.469.469,0,0,0,0,.938H9.72a2.15,2.15,0,0,1,.361.031.469.469,0,0,0,.159-.924Z" transform="translate(-8.783 -7.891)" fill="#aaa"/>
        </g>
      </g>
      <g id="Сгруппировать_414" data-name="Сгруппировать 414" transform="translate(7.727 9.469)">
        <g id="Сгруппировать_413" data-name="Сгруппировать 413">
          <path id="Контур_185" data-name="Контур 185" d="M7.377,7.891H6.908a.469.469,0,0,0,0,.938h.469a.469.469,0,1,0,0-.938Z" transform="translate(-6.439 -7.891)" fill="#aaa"/>
        </g>
      </g>
      <g id="Сгруппировать_416" data-name="Сгруппировать 416" transform="translate(7.708 20.531)">
        <g id="Сгруппировать_415" data-name="Сгруппировать 415">
          <path id="Контур_186" data-name="Контур 186" d="M7.36,17.109H6.892a.469.469,0,0,0,0,.938H7.36a.469.469,0,0,0,0-.937Z" transform="translate(-6.423 -17.109)" fill="#aaa"/>
        </g>
      </g>
    </g>
  </g>
</svg>
