<svg xmlns="http://www.w3.org/2000/svg" width="14" height="14" viewBox="0 0 14 14">
  <path id="Контур_51" data-name="Контур 51" d="M8.241,1.9a7.046,7.046,0,0,0,7-7,7.051,7.051,0,0,0-7-7,7.045,7.045,0,0,0-7,7A7.052,7.052,0,0,0,8.241,1.9ZM5.9-1.746a.516.516,0,0,1-.563-.534,1.327,1.327,0,0,1,.072-.4L7.368-7.948a.849.849,0,0,1,.859-.628.86.86,0,0,1,.874.628L11.05-2.677a1.37,1.37,0,0,1,.079.4.52.52,0,0,1-.563.534c-.289,0-.477-.144-.592-.5L9.483-3.681H6.978L6.487-2.244C6.379-1.89,6.184-1.746,5.9-1.746ZM7.274-4.583H9.194L8.27-7.305H8.2Z" transform="translate(-1.238 12.1)" fill="#457e98"/>
</svg>
