<svg xmlns="http://www.w3.org/2000/svg" width="18" height="18" viewBox="0 0 18 18">
  <path id="Контур_128" data-name="Контур 128" d="M.484,3.48a9.059,9.059,0,0,0,9-9,9.065,9.065,0,0,0-9-9,9.057,9.057,0,0,0-9,9A9.067,9.067,0,0,0,.484,3.48Zm0-1.606a7.363,7.363,0,0,1-7.389-7.4,7.361,7.361,0,0,1,7.38-7.4,7.391,7.391,0,0,1,7.408,7.4A7.365,7.365,0,0,1,.484,1.874Zm-1.1-2.989a.864.864,0,0,0,.733-.427L4.429-8.318a1.086,1.086,0,0,0,.223-.576.72.72,0,0,0-.761-.687.745.745,0,0,0-.631.418L-.658-2.9l-2.024-2.59a.784.784,0,0,0-.659-.362.719.719,0,0,0-.715.733.916.916,0,0,0,.214.566L-1.4-1.542A.954.954,0,0,0-.621-1.115Z" transform="translate(8.521 14.52)" fill="#d2e3eb"/>
</svg>
